<mxfile host="app.diagrams.net" modified="2022-10-26T08:04:58.693Z" agent="5.0 (Macintosh; Intel Mac OS X 10_15_7) AppleWebKit/537.36 (KHTML, like Gecko) Chrome/106.0.0.0 Safari/537.36" etag="q5LGZBaMBkLz-lKfuh0C" version="20.4.1" type="github">
  <diagram id="vbVlFKDCjaLW63i06vhi" name="Page-1">
    <mxGraphModel dx="1708" dy="1433" grid="1" gridSize="10" guides="1" tooltips="1" connect="1" arrows="1" fold="1" page="1" pageScale="1" pageWidth="1400" pageHeight="850" math="0" shadow="0">
      <root>
        <mxCell id="0" />
        <mxCell id="1" parent="0" />
        <mxCell id="GepXFc72BX5pKlfw2SH9-54" value="&lt;font style=&quot;font-size: 20px;&quot; color=&quot;#000000&quot;&gt;Amazon Sagemaker Deployment&lt;/font&gt;" style="rounded=0;whiteSpace=wrap;html=1;labelBackgroundColor=none;fontSize=12;fontColor=#FF66B3;strokeColor=#000000;strokeWidth=1;verticalAlign=top;" parent="1" vertex="1">
          <mxGeometry x="795" y="447.5" width="285" height="220" as="geometry" />
        </mxCell>
        <mxCell id="GepXFc72BX5pKlfw2SH9-7" value="ModelServingAPI" style="rounded=0;whiteSpace=wrap;html=1;fontSize=20;verticalAlign=top;labelBackgroundColor=none;" parent="1" vertex="1">
          <mxGeometry x="110" y="432.5" width="560" height="267.5" as="geometry" />
        </mxCell>
        <mxCell id="GepXFc72BX5pKlfw2SH9-3" value="&lt;div style=&quot;&quot;&gt;&lt;span style=&quot;line-height: 0;&quot;&gt;&lt;font style=&quot;font-size: 20px;&quot;&gt;Retool Deploy Model&lt;/font&gt;&lt;/span&gt;&lt;/div&gt;" style="whiteSpace=wrap;html=1;aspect=fixed;align=center;verticalAlign=top;labelBackgroundColor=none;" parent="1" vertex="1">
          <mxGeometry x="106" y="110" width="210" height="210" as="geometry" />
        </mxCell>
        <mxCell id="GepXFc72BX5pKlfw2SH9-2" value="" style="sketch=0;pointerEvents=1;shadow=0;dashed=0;html=1;strokeColor=none;fillColor=#505050;labelPosition=center;verticalLabelPosition=bottom;verticalAlign=top;outlineConnect=0;align=center;shape=mxgraph.office.concepts.form;labelBackgroundColor=none;" parent="1" vertex="1">
          <mxGeometry x="146" y="150" width="130" height="110" as="geometry" />
        </mxCell>
        <mxCell id="GepXFc72BX5pKlfw2SH9-14" style="edgeStyle=orthogonalEdgeStyle;rounded=0;orthogonalLoop=1;jettySize=auto;html=1;entryX=0.192;entryY=-0.029;entryDx=0;entryDy=0;entryPerimeter=0;fontSize=16;labelBackgroundColor=none;" parent="1" source="GepXFc72BX5pKlfw2SH9-5" target="GepXFc72BX5pKlfw2SH9-10" edge="1">
          <mxGeometry relative="1" as="geometry" />
        </mxCell>
        <mxCell id="GepXFc72BX5pKlfw2SH9-5" value="Deploy" style="rounded=1;fillColor=#0057D8;strokeColor=none;html=1;fontColor=#ffffff;align=center;verticalAlign=middle;fontStyle=0;fontSize=12;sketch=0;labelBackgroundColor=none;" parent="1" vertex="1">
          <mxGeometry x="176" y="270" width="86" height="33" as="geometry" />
        </mxCell>
        <mxCell id="GepXFc72BX5pKlfw2SH9-6" value="" style="sketch=0;html=1;dashed=0;whitespace=wrap;fillColor=#2875E2;strokeColor=#ffffff;points=[[0.005,0.63,0],[0.1,0.2,0],[0.9,0.2,0],[0.5,0,0],[0.995,0.63,0],[0.72,0.99,0],[0.5,1,0],[0.28,0.99,0]];shape=mxgraph.kubernetes.icon;prIcon=api;fontSize=20;labelBackgroundColor=none;" parent="1" vertex="1">
          <mxGeometry x="120" y="442.5" width="70" height="60" as="geometry" />
        </mxCell>
        <mxCell id="GepXFc72BX5pKlfw2SH9-10" value="&lt;u&gt;Admin Router&lt;/u&gt;" style="rounded=0;whiteSpace=wrap;html=1;fontSize=16;verticalAlign=top;align=left;spacingLeft=2;labelBackgroundColor=none;" parent="1" vertex="1">
          <mxGeometry x="196" y="516.25" width="120" height="100" as="geometry" />
        </mxCell>
        <mxCell id="1gG7coRu7cXpsgXmtZ05-15" style="edgeStyle=orthogonalEdgeStyle;rounded=0;orthogonalLoop=1;jettySize=auto;html=1;labelBackgroundColor=none;fontColor=none;startArrow=none;startFill=0;" edge="1" parent="1" source="GepXFc72BX5pKlfw2SH9-17">
          <mxGeometry relative="1" as="geometry">
            <mxPoint x="795" y="490" as="targetPoint" />
            <Array as="points">
              <mxPoint x="795" y="490" />
            </Array>
          </mxGeometry>
        </mxCell>
        <mxCell id="GepXFc72BX5pKlfw2SH9-17" value="&lt;u&gt;Pipeline Router&lt;/u&gt;" style="rounded=0;whiteSpace=wrap;html=1;fontSize=16;strokeWidth=1;spacingLeft=2;verticalAlign=top;align=left;strokeColor=#000000;labelBackgroundColor=none;" parent="1" vertex="1">
          <mxGeometry x="415" y="480" width="130" height="60" as="geometry" />
        </mxCell>
        <mxCell id="1gG7coRu7cXpsgXmtZ05-9" style="edgeStyle=orthogonalEdgeStyle;rounded=0;orthogonalLoop=1;jettySize=auto;html=1;entryX=1;entryY=0.5;entryDx=0;entryDy=0;exitX=0;exitY=0.75;exitDx=0;exitDy=0;labelBackgroundColor=none;" edge="1" parent="1" source="GepXFc72BX5pKlfw2SH9-29" target="GepXFc72BX5pKlfw2SH9-17">
          <mxGeometry relative="1" as="geometry" />
        </mxCell>
        <mxCell id="GepXFc72BX5pKlfw2SH9-29" value="&lt;font style=&quot;font-size: 20px;&quot;&gt;Dagster Deploy Pipeline&lt;/font&gt;" style="rounded=0;whiteSpace=wrap;html=1;fontSize=14;strokeColor=#000000;strokeWidth=1;verticalAlign=top;align=left;spacingLeft=8;labelBackgroundColor=none;" parent="1" vertex="1">
          <mxGeometry x="640" y="230" width="800" height="130" as="geometry" />
        </mxCell>
        <mxCell id="GepXFc72BX5pKlfw2SH9-32" value="" style="curved=1;endArrow=classic;html=1;rounded=0;fontSize=20;exitX=0.5;exitY=0;exitDx=0;exitDy=0;entryX=-0.003;entryY=0.428;entryDx=0;entryDy=0;entryPerimeter=0;labelBackgroundColor=none;" parent="1" source="GepXFc72BX5pKlfw2SH9-10" target="GepXFc72BX5pKlfw2SH9-29" edge="1">
          <mxGeometry width="50" height="50" relative="1" as="geometry">
            <mxPoint x="520" y="430" as="sourcePoint" />
            <mxPoint x="570" y="380" as="targetPoint" />
            <Array as="points">
              <mxPoint x="320" y="270" />
            </Array>
          </mxGeometry>
        </mxCell>
        <mxCell id="GepXFc72BX5pKlfw2SH9-50" style="edgeStyle=orthogonalEdgeStyle;rounded=0;orthogonalLoop=1;jettySize=auto;html=1;entryX=0;entryY=0.5;entryDx=0;entryDy=0;fontSize=12;labelBackgroundColor=none;" parent="1" source="GepXFc72BX5pKlfw2SH9-33" target="GepXFc72BX5pKlfw2SH9-36" edge="1">
          <mxGeometry relative="1" as="geometry" />
        </mxCell>
        <mxCell id="GepXFc72BX5pKlfw2SH9-33" value="&lt;font style=&quot;font-size: 12px;&quot;&gt;Set Deploy Status&lt;/font&gt;" style="shape=process;whiteSpace=wrap;html=1;backgroundOutline=1;fontSize=20;strokeColor=#000000;strokeWidth=1;labelBackgroundColor=none;" parent="1" vertex="1">
          <mxGeometry x="670" y="270" width="120" height="60" as="geometry" />
        </mxCell>
        <mxCell id="GepXFc72BX5pKlfw2SH9-48" style="edgeStyle=orthogonalEdgeStyle;rounded=0;orthogonalLoop=1;jettySize=auto;html=1;exitX=1;exitY=0.5;exitDx=0;exitDy=0;entryX=0;entryY=0.5;entryDx=0;entryDy=0;fontSize=12;labelBackgroundColor=none;" parent="1" source="GepXFc72BX5pKlfw2SH9-36" target="GepXFc72BX5pKlfw2SH9-38" edge="1">
          <mxGeometry relative="1" as="geometry" />
        </mxCell>
        <mxCell id="GepXFc72BX5pKlfw2SH9-36" value="Package Model" style="shape=process;whiteSpace=wrap;html=1;backgroundOutline=1;fontSize=12;strokeColor=#000000;strokeWidth=1;labelBackgroundColor=none;" parent="1" vertex="1">
          <mxGeometry x="830" y="270" width="120" height="60" as="geometry" />
        </mxCell>
        <mxCell id="GepXFc72BX5pKlfw2SH9-52" value="" style="edgeStyle=orthogonalEdgeStyle;rounded=0;orthogonalLoop=1;jettySize=auto;html=1;fontSize=12;entryX=0;entryY=0.5;entryDx=0;entryDy=0;labelBackgroundColor=none;" parent="1" source="GepXFc72BX5pKlfw2SH9-38" target="1gG7coRu7cXpsgXmtZ05-4" edge="1">
          <mxGeometry relative="1" as="geometry" />
        </mxCell>
        <mxCell id="GepXFc72BX5pKlfw2SH9-38" value="Deploy model" style="shape=process;whiteSpace=wrap;html=1;backgroundOutline=1;fontSize=12;strokeColor=#000000;strokeWidth=1;labelBackgroundColor=none;" parent="1" vertex="1">
          <mxGeometry x="990" y="270" width="120" height="60" as="geometry" />
        </mxCell>
        <mxCell id="GepXFc72BX5pKlfw2SH9-39" value="Set Deploy Status" style="shape=process;whiteSpace=wrap;html=1;backgroundOutline=1;fontSize=12;strokeColor=#000000;strokeWidth=1;labelBackgroundColor=none;" parent="1" vertex="1">
          <mxGeometry x="1290" y="270" width="120" height="60" as="geometry" />
        </mxCell>
        <mxCell id="GepXFc72BX5pKlfw2SH9-53" value="" style="sketch=0;points=[[0,0,0],[0.25,0,0],[0.5,0,0],[0.75,0,0],[1,0,0],[0,1,0],[0.25,1,0],[0.5,1,0],[0.75,1,0],[1,1,0],[0,0.25,0],[0,0.5,0],[0,0.75,0],[1,0.25,0],[1,0.5,0],[1,0.75,0]];outlineConnect=0;fontColor=#232F3E;gradientColor=#4AB29A;gradientDirection=north;fillColor=#116D5B;strokeColor=#ffffff;dashed=0;verticalLabelPosition=bottom;verticalAlign=top;align=center;html=1;fontSize=12;fontStyle=0;aspect=fixed;shape=mxgraph.aws4.resourceIcon;resIcon=mxgraph.aws4.sagemaker;labelBackgroundColor=none;" parent="1" vertex="1">
          <mxGeometry x="900" y="518.5" width="78" height="78" as="geometry" />
        </mxCell>
        <mxCell id="W-KNCvt0Ies3O7yyFGv0-12" style="edgeStyle=orthogonalEdgeStyle;rounded=0;orthogonalLoop=1;jettySize=auto;html=1;entryX=1;entryY=0.75;entryDx=0;entryDy=0;fontSize=16;fontColor=#000000;exitX=0.104;exitY=0.005;exitDx=0;exitDy=0;exitPerimeter=0;labelBackgroundColor=none;" parent="1" source="W-KNCvt0Ies3O7yyFGv0-2" target="GepXFc72BX5pKlfw2SH9-17" edge="1">
          <mxGeometry relative="1" as="geometry" />
        </mxCell>
        <mxCell id="W-KNCvt0Ies3O7yyFGv0-2" value="&lt;font style=&quot;font-size: 20px;&quot;&gt;Dagster Deactivate Pipeline&lt;/font&gt;" style="rounded=0;whiteSpace=wrap;html=1;fontSize=14;strokeColor=#000000;strokeWidth=1;verticalAlign=top;align=left;spacingLeft=8;labelBackgroundColor=none;" parent="1" vertex="1">
          <mxGeometry x="660" y="740" width="650" height="150" as="geometry" />
        </mxCell>
        <mxCell id="W-KNCvt0Ies3O7yyFGv0-6" style="edgeStyle=orthogonalEdgeStyle;rounded=0;orthogonalLoop=1;jettySize=auto;html=1;fontSize=16;fontColor=#000000;labelBackgroundColor=none;" parent="1" source="W-KNCvt0Ies3O7yyFGv0-3" target="W-KNCvt0Ies3O7yyFGv0-4" edge="1">
          <mxGeometry relative="1" as="geometry" />
        </mxCell>
        <mxCell id="W-KNCvt0Ies3O7yyFGv0-3" value="&lt;font style=&quot;font-size: 12px;&quot;&gt;Set Deploy Status&lt;/font&gt;" style="shape=process;whiteSpace=wrap;html=1;backgroundOutline=1;fontSize=20;strokeColor=#000000;strokeWidth=1;labelBackgroundColor=none;" parent="1" vertex="1">
          <mxGeometry x="690" y="800" width="120" height="60" as="geometry" />
        </mxCell>
        <mxCell id="1gG7coRu7cXpsgXmtZ05-7" style="edgeStyle=orthogonalEdgeStyle;rounded=0;orthogonalLoop=1;jettySize=auto;html=1;entryX=0;entryY=0.5;entryDx=0;entryDy=0;labelBackgroundColor=none;" edge="1" parent="1" source="W-KNCvt0Ies3O7yyFGv0-4" target="1gG7coRu7cXpsgXmtZ05-6">
          <mxGeometry relative="1" as="geometry" />
        </mxCell>
        <mxCell id="W-KNCvt0Ies3O7yyFGv0-4" value="Deactivate model" style="shape=process;whiteSpace=wrap;html=1;backgroundOutline=1;fontSize=12;strokeColor=#000000;strokeWidth=1;labelBackgroundColor=none;" parent="1" vertex="1">
          <mxGeometry x="850" y="800" width="120" height="60" as="geometry" />
        </mxCell>
        <mxCell id="W-KNCvt0Ies3O7yyFGv0-5" value="&lt;font style=&quot;font-size: 12px;&quot;&gt;Set Deploy Status&lt;/font&gt;" style="shape=process;whiteSpace=wrap;html=1;backgroundOutline=1;fontSize=20;strokeColor=#000000;strokeWidth=1;labelBackgroundColor=none;" parent="1" vertex="1">
          <mxGeometry x="1170" y="800" width="120" height="60" as="geometry" />
        </mxCell>
        <mxCell id="W-KNCvt0Ies3O7yyFGv0-10" value="" style="curved=1;endArrow=classic;html=1;rounded=0;fontSize=16;fontColor=#000000;exitX=0.5;exitY=1;exitDx=0;exitDy=0;entryX=-0.004;entryY=0.527;entryDx=0;entryDy=0;entryPerimeter=0;labelBackgroundColor=none;" parent="1" source="GepXFc72BX5pKlfw2SH9-10" target="W-KNCvt0Ies3O7yyFGv0-2" edge="1">
          <mxGeometry width="50" height="50" relative="1" as="geometry">
            <mxPoint x="330" y="850" as="sourcePoint" />
            <mxPoint x="380" y="800" as="targetPoint" />
            <Array as="points">
              <mxPoint x="300" y="810" />
            </Array>
          </mxGeometry>
        </mxCell>
        <mxCell id="1gG7coRu7cXpsgXmtZ05-13" style="edgeStyle=orthogonalEdgeStyle;rounded=0;orthogonalLoop=1;jettySize=auto;html=1;entryX=0.25;entryY=1;entryDx=0;entryDy=0;labelBackgroundColor=none;" edge="1" parent="1" source="1gG7coRu7cXpsgXmtZ05-1" target="GepXFc72BX5pKlfw2SH9-10">
          <mxGeometry relative="1" as="geometry" />
        </mxCell>
        <mxCell id="1gG7coRu7cXpsgXmtZ05-1" value="&lt;div style=&quot;&quot;&gt;&lt;span style=&quot;line-height: 0;&quot;&gt;&lt;font style=&quot;font-size: 20px;&quot;&gt;Retool Deactivate Model&lt;/font&gt;&lt;/span&gt;&lt;/div&gt;" style="whiteSpace=wrap;html=1;aspect=fixed;align=center;verticalAlign=top;labelBackgroundColor=none;" vertex="1" parent="1">
          <mxGeometry x="120" y="770" width="210" height="210" as="geometry" />
        </mxCell>
        <mxCell id="1gG7coRu7cXpsgXmtZ05-2" value="" style="sketch=0;pointerEvents=1;shadow=0;dashed=0;html=1;strokeColor=none;fillColor=#505050;labelPosition=center;verticalLabelPosition=bottom;verticalAlign=top;outlineConnect=0;align=center;shape=mxgraph.office.concepts.form;labelBackgroundColor=none;" vertex="1" parent="1">
          <mxGeometry x="160" y="815" width="130" height="110" as="geometry" />
        </mxCell>
        <mxCell id="1gG7coRu7cXpsgXmtZ05-3" value="Deactivate" style="rounded=1;fillColor=#0057D8;strokeColor=none;html=1;fontColor=#ffffff;align=center;verticalAlign=middle;fontStyle=0;fontSize=12;sketch=0;labelBackgroundColor=none;" vertex="1" parent="1">
          <mxGeometry x="190" y="935" width="86" height="33" as="geometry" />
        </mxCell>
        <mxCell id="1gG7coRu7cXpsgXmtZ05-5" style="edgeStyle=orthogonalEdgeStyle;rounded=0;orthogonalLoop=1;jettySize=auto;html=1;entryX=0;entryY=0.5;entryDx=0;entryDy=0;labelBackgroundColor=none;" edge="1" parent="1" source="1gG7coRu7cXpsgXmtZ05-4" target="GepXFc72BX5pKlfw2SH9-39">
          <mxGeometry relative="1" as="geometry" />
        </mxCell>
        <mxCell id="1gG7coRu7cXpsgXmtZ05-4" value="Poll for endpoint success" style="shape=process;whiteSpace=wrap;html=1;backgroundOutline=1;fontSize=12;strokeColor=#000000;strokeWidth=1;labelBackgroundColor=none;" vertex="1" parent="1">
          <mxGeometry x="1140" y="270" width="120" height="60" as="geometry" />
        </mxCell>
        <mxCell id="1gG7coRu7cXpsgXmtZ05-8" style="edgeStyle=orthogonalEdgeStyle;rounded=0;orthogonalLoop=1;jettySize=auto;html=1;labelBackgroundColor=none;" edge="1" parent="1" source="1gG7coRu7cXpsgXmtZ05-6" target="W-KNCvt0Ies3O7yyFGv0-5">
          <mxGeometry relative="1" as="geometry" />
        </mxCell>
        <mxCell id="1gG7coRu7cXpsgXmtZ05-6" value="Clean up endpoint configs" style="shape=process;whiteSpace=wrap;html=1;backgroundOutline=1;fontSize=12;strokeColor=#000000;strokeWidth=1;labelBackgroundColor=none;" vertex="1" parent="1">
          <mxGeometry x="1010" y="800" width="120" height="60" as="geometry" />
        </mxCell>
        <mxCell id="1gG7coRu7cXpsgXmtZ05-12" style="edgeStyle=orthogonalEdgeStyle;rounded=0;orthogonalLoop=1;jettySize=auto;html=1;labelBackgroundColor=none;startArrow=none;startFill=0;" edge="1" parent="1" source="1gG7coRu7cXpsgXmtZ05-11">
          <mxGeometry relative="1" as="geometry">
            <mxPoint x="800" y="630" as="targetPoint" />
          </mxGeometry>
        </mxCell>
        <mxCell id="1gG7coRu7cXpsgXmtZ05-11" value="&lt;u&gt;Inference Router&lt;/u&gt;" style="rounded=0;whiteSpace=wrap;html=1;fontSize=16;verticalAlign=top;align=left;spacingLeft=2;labelBackgroundColor=none;" vertex="1" parent="1">
          <mxGeometry x="420" y="580" width="120" height="100" as="geometry" />
        </mxCell>
        <mxCell id="1gG7coRu7cXpsgXmtZ05-16" value="1" style="text;html=1;align=center;verticalAlign=middle;resizable=0;points=[];autosize=1;strokeColor=none;fillColor=none;fontColor=none;" vertex="1" parent="1">
          <mxGeometry x="195" y="365" width="30" height="30" as="geometry" />
        </mxCell>
        <mxCell id="1gG7coRu7cXpsgXmtZ05-17" value="2" style="text;html=1;align=center;verticalAlign=middle;resizable=0;points=[];autosize=1;strokeColor=none;fillColor=none;fontColor=none;" vertex="1" parent="1">
          <mxGeometry x="440" y="303" width="30" height="30" as="geometry" />
        </mxCell>
        <mxCell id="1gG7coRu7cXpsgXmtZ05-18" value="3" style="text;html=1;align=center;verticalAlign=middle;resizable=0;points=[];autosize=1;strokeColor=none;fillColor=none;fontColor=none;" vertex="1" parent="1">
          <mxGeometry x="590" y="390" width="30" height="30" as="geometry" />
        </mxCell>
        <mxCell id="1gG7coRu7cXpsgXmtZ05-20" value="4" style="text;html=1;align=center;verticalAlign=middle;resizable=0;points=[];autosize=1;strokeColor=none;fillColor=none;fontColor=none;" vertex="1" parent="1">
          <mxGeometry x="690" y="470" width="30" height="30" as="geometry" />
        </mxCell>
        <mxCell id="1gG7coRu7cXpsgXmtZ05-21" value="1" style="text;html=1;align=center;verticalAlign=middle;resizable=0;points=[];autosize=1;strokeColor=none;fillColor=none;fontColor=none;" vertex="1" parent="1">
          <mxGeometry x="196" y="720" width="30" height="30" as="geometry" />
        </mxCell>
        <mxCell id="1gG7coRu7cXpsgXmtZ05-22" value="2" style="text;html=1;align=center;verticalAlign=middle;resizable=0;points=[];autosize=1;strokeColor=none;fillColor=none;fontColor=none;" vertex="1" parent="1">
          <mxGeometry x="450" y="770" width="30" height="30" as="geometry" />
        </mxCell>
        <mxCell id="1gG7coRu7cXpsgXmtZ05-24" value="3" style="text;html=1;align=center;verticalAlign=middle;resizable=0;points=[];autosize=1;strokeColor=none;fillColor=none;fontColor=none;" vertex="1" parent="1">
          <mxGeometry x="720" y="667.5" width="30" height="30" as="geometry" />
        </mxCell>
        <mxCell id="1gG7coRu7cXpsgXmtZ05-25" value="5" style="text;html=1;align=center;verticalAlign=middle;resizable=0;points=[];autosize=1;strokeColor=none;fillColor=none;fontColor=none;" vertex="1" parent="1">
          <mxGeometry x="610" y="610" width="30" height="30" as="geometry" />
        </mxCell>
      </root>
    </mxGraphModel>
  </diagram>
</mxfile>
